<svg xmlns="http://www.w3.org/2000/svg" width="15" height="15" viewBox="0 0 15 15"><g><g><path fill="#fff" d="M10.15 9.558c.03.247.186.368.354.477l2.086 1.219c.352.217.814.495 1.19.192l.081-.09a.633.633 0 0 0-.001-.776c-.107-.136-1.01-.626-1.272-.777L11.011 8.9c-.456-.194-.926.143-.862.658z"/></g><g><path fill="#fff" d="M10.15 6.084c0 .499.561.657.987.44.351-.176.663-.396 1.014-.58l1.53-.891c.72-.514.088-1.458-.653-1.052-.332.182-.718.395-1.034.589l-1.027.598c-.537.312-.818.367-.818.896z"/></g><g><path fill="#fff" d="M4.613 2.88l-.003-.003c-.095-.158-.245-.366-.307-.535a.743.743 0 0 1-.04-.296c.016-.081.104-.15.178-.177a.321.321 0 0 1 .306.035c.052.06.112.164.153.227.094.149.184.3.274.452.144.247.292.498.428.751l.001.004.294.51c.1.174.484.756.475.939-.01.226-.248.38-.448.253-.204-.131-.568-.891-.719-1.134zm-.265.155l.593 1.03c.211.333.52 1.043.818 1.233.4.253.9-.034.921-.497.013-.3-.359-.83-.516-1.106l-.29-.506c-.12-.222-.807-1.432-.928-1.522-.433-.322-.993.01-.993.401 0 .4.14.543.395.967z"/></g><g><path fill="#fff" d="M11.617 2.21c0-.752-.705-.766-.979-.541-.148.12-.52.77-.648 1.002-.198.364-.393.69-.592 1.034-.18.31-.534.828-.51 1.12.032.444.494.67.895.489.23-.103.558-.727.688-.967l.59-1.03c.117-.216.556-.873.556-1.106z"/></g><g><path fill="#fff" d="M2.012 4.774c-.165-.135-.175-.42.026-.526.217-.114.529.109.705.22l.153.094c.173.105.349.218.532.306.086.042.165.097.248.145l.759.444c.156.088.504.243.61.378a.38.38 0 0 1 .058.32.265.265 0 0 1-.164.149c-.122.04-.257 0-.366-.057-.176-.097-.348-.202-.524-.297zm2.574.415l-.755-.441c-.12-.07-.158-.102-.27-.157-.148-.071-.361-.204-.506-.292-.382-.231-.767-.53-1.16-.323-.403.212-.416.784-.055 1.054l2.059 1.189c.183.098.334.193.528.298.537.29.997-.04.997-.433 0-.533-.375-.633-.838-.895z"/></g><g><path fill="#fff" d="M10.596 7.792c0 .287.313.57.613.57h2.307c.324.002.887.061 1.13-.15a.622.622 0 0 0-.446-1.084h-2.365c-.555-.003-1.24-.099-1.24.664z"/></g><g><path fill="#fff" d="M1.554 8.056c-.116 0-.357-.005-.45-.088-.057-.049-.067-.146-.069-.214-.002-.069.003-.164.057-.216.132-.123.573-.11.744-.109.107.002.213.004.32.003H4.06c.141 0 .406.001.524.09.065.05.075.134.074.21 0 .08-.013.166-.077.22-.093.076-.277.096-.392.101a2.776 2.776 0 0 1-.129.003zm2.506.308c.425 0 .902-.074.906-.629.005-.589-.536-.609-.905-.61H2.153c-.648.006-1.448-.11-1.425.638.017.502.363.6.827.601z"/></g><g><path fill="#fff" d="M5.394 9.586c.122-.493-.302-.848-.807-.695l-2.626 1.503c-.75.43-.282 1.418.463 1.141.181-.068.364-.188.535-.286l1.321-.76c.088-.053.151-.09.251-.147.452-.255.77-.38.864-.756z"/></g><g><path fill="#fff" d="M4.63 13.946c.162 0 .37-.187.446-.296l.278-.465c.04-.075.09-.153.139-.233l.266-.472c.05-.11.063-.126.12-.22.099-.16.18-.31.279-.467.049-.078.092-.164.134-.232.13-.213.322-.508.354-.755.062-.488-.28-.768-.755-.673-.298.06-.512.53-.67.814L4.03 13.03c-.21.396-.016.917.602.917z"/></g><g><path fill="#fff" d="M7.179 1.499v2.506c0 .35-.018.923.613.912.738-.012.593-.803.6-1.51L8.39 1.499c0-.395-.06-.812-.6-.827-.568-.015-.612.457-.612.827z"/></g><g><path fill="#fff" d="M8.942 10.815c0 .4.14.542.395.967l.594 1.03c.211.334.518 1.043.818 1.233.398.254.898-.033.921-.497.013-.3-.359-.83-.516-1.106l-.292-.507c-.119-.22-.805-1.43-.927-1.52-.433-.323-.993.008-.993.4z"/></g><g><path fill="#fff" d="M7.179 11.398v2.506c0 .351-.018.923.613.912.738-.012.593-.803.6-1.51l-.001-1.908c0-.396-.06-.812-.6-.827-.568-.016-.612.457-.612.827z"/></g></g></svg>