<svg xmlns="http://www.w3.org/2000/svg" width="13" height="14" viewBox="0 0 13 14"><g><g><path fill="#fff" d="M5.36.43h2.415c.236 0 .428.193.428.429V5.44c0 .235.191.427.427.427h1.907c.172 0 .32.095.39.252a.419.419 0 0 1-.072.459l-3.875 4.33a.41.41 0 0 1-.312.14.409.409 0 0 1-.316-.132L2.133 6.476a.422.422 0 0 1-.083-.463.42.42 0 0 1 .393-.258H4.58c.118 0 .22-.043.304-.128a.412.412 0 0 0 .122-.306L4.933.866a.41.41 0 0 1 .123-.307A.412.412 0 0 1 5.36.43z"/></g><g><path fill="#fff" d="M.89 10.896h.688c.15 0 .272.122.272.27v1.356h9.44v-1.355c0-.15.122-.271.272-.271h.688c.15 0 .272.122.272.27v1.658c0 .539-.403.988-.924 1.062v.01H1.536v-.011a1.077 1.077 0 0 1-.917-1.061v-1.657c0-.15.123-.271.27-.271z"/></g></g></svg>