<svg xmlns="http://www.w3.org/2000/svg" width="11" height="15" viewBox="0 0 11 15"><g><g><path fill="#fff" d="M1.26 14.418c-.916.08-.678-1.905-.677-2.708V4.858c.002-1.54-.13-1.905 1.521-1.905l-.003 2.18 7.397-.002.003-2.174c1.65-.014 1.516.376 1.518 1.901l.006 8.54c0 .276-.022.495-.164.706-.1.15-.282.332-.519.314-.64.136-8.426.133-9.082 0zm3.646-2.53c.317-.165.35-.32.54-.535l3.275-3.67-.635-.565c-1.073 1.185-2.132 2.376-3.218 3.55-.19-.216-1.24-1.11-1.405-1.192-.205.236-.397.384-.54.657.305.261 1.844 1.497 1.983 1.755z"/></g><g><path fill="#fff" d="M4.067 1.866c.428-1.67 3.044-1.696 3.468 0H8.63l.002 2.394-5.657.002-.002-2.396zm1.587.05c-.598.294-.15.98.318.778.511-.22.173-1.02-.318-.779z"/></g></g></svg>