<svg xmlns="http://www.w3.org/2000/svg" width="15" height="14" viewBox="0 0 15 14"><g><g><path fill="#fff" d="M6.262 3.318c1.42-.04.95-.114 2.348.261.676-.697 1.205-1.449 2.193-1.459 1.476-.014 2.378 1.707 1.466 2.927-.101.133-.255.263-.367.376-.244.25-2.46 2.49-2.611 2.596a1.82 1.82 0 0 1-2.584-.458l-.252-.497c-.22.125-1.243 1.127-1.377 1.323.097.218.28.435.407.599.389.503 1.255.978 1.906 1.124 1.302.29 2.354-.118 3.144-.731l1.015-.988c.632-.634 1.435-1.404 2.026-2.035.278-.296.57-.812.727-1.305A3.669 3.669 0 0 0 11.29.317c-.991-.14-2.158.198-2.875.849-.46.418-1.161 1.16-1.647 1.642-.144.142-.398.366-.506.51z"/></g><g><path fill="#fff" d="M6.542 10.795c-.181.206-1.012 1.034-1.228 1.171-1.556.983-3.486-.749-2.586-2.414.213-.397 1.396-1.504 1.749-1.856.404-.405.789-.804 1.207-1.196.844-.793 2.227-.616 2.814.416.089.155.123.308.188.39.16-.07 1.278-1.178 1.377-1.322-.201-.427-.574-.813-.949-1.088-.911-.67-2.099-.917-3.214-.58-.934.281-1.265.631-1.836 1.194L2.047 7.526c-.561.585-.91.86-1.206 1.795-.384 1.214-.093 2.368.508 3.228 1.159 1.661 3.574 2.078 5.263.745l2.269-2.241c-1.477.041-.933.109-2.339-.258z"/></g></g></svg>