<svg xmlns="http://www.w3.org/2000/svg" width="11" height="15" viewBox="0 0 11 15"><g><g><path fill="#fff" d="M.924 2.96c.27-.054 1.006-.017 1.326-.017 2.62 0 5.457.037 8.046 0 .386-.006.367-.061.36.324-.003.188.018.466-.001.64-.038.375-.36.158-.357.985l.001 8.01c-.002.454.04.809-.157 1.152-.385.668-1.283.523-2.175.523H2.603c-.889-.002-1.331-.417-1.328-1.321V5.245c.001-.528.087-.798-.236-1.12-.078-.077-.113-.076-.123-.22zm2.29 8.566c.001.252-.025.443.05.654h.801l-.007-6.932c-.831-.016-.845-.057-.846.277zm2.959-6.24c-.099-.072-.327-.037-.523-.04-.283-.002-.342-.067-.342.206l.004 5.475c0 1.43-.111 1.26.375 1.255.581-.005.523.084.52-.443l-.006-6.38c-.017-.087.006-.023-.028-.072zm2.093-.103c-.857-.002-.662-.181-.662 1.297v4.447c0 1.394-.132 1.296.412 1.29l.422-.004c.13-.025.061-.016.094-.032.081-.244.03-3 .03-3.513V6.904c0-.293.083-1.531-.062-1.681z"/></g><g><path fill="#fff" d="M3.167 2.031c.123-.155.149-.403.299-.584C4.339.443 7.51.208 8.37 2.027l2.702.02-.014.647H.521c-.011-.316-.027-.352.006-.656zm4.292.02c.069-.684-3.186-.72-3.32-.11-.042.188-.017.037.011.1.114.044 3.045.053 3.309.01z"/></g></g></svg>