<svg xmlns="http://www.w3.org/2000/svg" width="13" height="14" viewBox="0 0 13 14"><g><g><path fill="#fff" d="M.213 12.55c.157.53 3.136 1.03 3.906 1.134 1.565.209 3.212.215 4.795.026.792-.094 3.749-.568 3.996-1.053.197-.385-1.008-3.09-1.232-3.63-.868-2.093-.503-2.078-1.713-2.065-.4.004-.875-.031-1.263-.002-.611.045-1.08.466-2.044.484-1.202.02-1.592-.388-2.06-.467-.474-.081-2.104-.101-2.331.16-.07.08-2.167 5.036-2.054 5.414z"/></g><g><path fill="#fff" d="M3.16 3.89c.18 1.852 1.848 3.235 3.801 3.044.49-.047.915-.204 1.303-.417 1.142-.628 1.847-1.899 1.742-3.315C9.87 1.394 8.221-.108 6.181.096 4.421.273 2.966 1.898 3.16 3.89z"/></g></g></svg>