<svg xmlns="http://www.w3.org/2000/svg" width="16" height="16" viewBox="0 0 16 16"><g><g><path fill="#fff" d="M3.235 2.824c-.902.852-2.074 2.204-2.22 4.002.326-.142.77-.603 1.07-.829.455.288.868.746 1.314 1.046.23-.323.473-1.56 1.425-2.32.791-.629 1.511-1.01 2.84-1.065l.008.77c.814-.824 1-1.14 1.746-2.008C9.245 2.063 7.994.531 7.742.306c.346 1.46-2.463.586-4.507 2.518z"/></g><g><path fill="#fff" d="M15.568 8.031c-1.43.373-.623-2.483-2.516-4.5-.849-.907-2.2-2.065-3.997-2.224.118.294.618.808.828 1.068-.3.464-.74.865-1.049 1.315.408.312 3.233.748 3.384 4.266l-.769.008c.563.6 1.357 1.195 2.01 1.748.37-.183 1.88-1.408 2.11-1.68z"/></g><g><path fill="#fff" d="M.01 8.137c.226-.053.41-.096.643-.028.193.057.123.038.207.103-.185 2.904 2.555 6.384 5.674 6.652-.14-.326-.602-.775-.83-1.07.286-.458.744-.871 1.046-1.315-.188-.135-.945-.378-1.283-.576-.368-.216-.811-.567-1.037-.847-.627-.778-1.02-1.53-1.065-2.841l.77-.01C3.478 7.57 2.817 7.049 2.13 6.459 1.783 6.619.223 7.894.01 8.137z"/></g><g><path fill="#fff" d="M7.848 15.864c-.334-1.292 1.222-.742 2.657-1.375 1.396-.615 2.528-1.602 3.26-2.865.384-.66.724-1.41.807-2.277-.243.1-.856.65-1.07.83-.466-.298-.861-.732-1.312-1.051-.291.374-.774 3.255-4.265 3.386l-.022-.77c-.293.267-.592.618-.89.979-.29.354-.561.69-.848 1.027.157.333 1.454 1.93 1.683 2.116z"/></g></g></svg>