<svg xmlns="http://www.w3.org/2000/svg" width="15" height="15" viewBox="0 0 15 15"><g><g><path fill="#fff" d="M3.27 3.585c.121.007.11-.014.172-.082.114-.122.408-.322.397-.488-.008-.138-.06-.37-.084-.52-.04-.25-.158-.825-.15-1.05.424-.361 1.9-1.027 2.623-1.085l.864 1.17c.032.043.027.042.067.092.052.064.018.032.082.086l.665-.005C7.991 1.667 8.727.532 8.92.357c.554.072 1.555.443 2.041.726.2.115.412.262.584.352l-.257 1.69c.135.082.265.215.367.335.174.203.193.125.526.072.402-.064.88-.16 1.277-.193l.338.577c.246.426.752 1.677.723 2.08-.22.15-1.212.898-1.338.948l.002.707c.025.059.834.62 1.004.747.12.09.247.166.341.266-.068.609-.435 1.49-.724 2.033-.115.217-.25.4-.353.592l-1.69-.258a2.228 2.228 0 0 1-.469.472l.258 1.69c-.468.246-.535.36-1.193.643-.37.159-1.01.387-1.437.436-.176-.165-.924-1.311-1.013-1.347H7.2c-.049.124-.799 1.12-.947 1.337-.492.035-1.83-.556-2.365-.884-.122-.075-.176-.132-.292-.177.041-.513.21-1.196.245-1.582.016-.174-.145-.23-.242-.325-.098-.1-.15-.26-.334-.25-.137.009-.379.065-.523.086-.342.053-.714.127-1.05.159-.269-.511-.335-.473-.64-1.185C.882 9.71.672 9.12.612 8.664c.087-.095.214-.171.325-.256.115-.09.228-.161.348-.255.202-.157.497-.33.675-.502 0-.872.152-.56-.67-1.173-.233-.173-.478-.327-.675-.506.058-.72.723-2.2 1.086-2.624.422.003 1.238.216 1.57.237zm1.256 3.939c.074 1.587 1.531 2.917 3.251 2.81 1.598-.1 2.93-1.515 2.811-3.253a3.046 3.046 0 0 0-3.25-2.81c-1.622.107-2.895 1.498-2.812 3.253z"/></g></g></svg>