<svg xmlns="http://www.w3.org/2000/svg" width="14" height="14" viewBox="0 0 14 14"><g><g><path fill="#fff" d="M5.711 3.123h2.156L7.53 8.26H6.049zm.038 6.687c0-.616.422-1.083 1.041-1.083.618 0 1.04.467 1.04 1.083 0 .615-.422 1.083-1.04 1.083-.619 0-1.041-.468-1.041-1.083zM.852 3.555c-.865.895-.779.967-.776 2.563.01 4.956-.273 3.138 3.306 6.823.909.936.968.802 2.608.8 4.283-.004 2.973.51 6.784-3.298.874-.874.71-1.026.708-2.57 0-.696.085-2.802-.065-3.333-.207-.737-2.661-2.882-3.223-3.447-.863-.87-.967-.811-2.564-.81-.784 0-2.643-.102-3.257.077C3.571.593 1.334 3.058.852 3.556z"/></g></g></svg>