<svg xmlns="http://www.w3.org/2000/svg" width="14" height="14" viewBox="0 0 14 14"><g><g><path fill="#fff" d="M9.953 4.26c0 .86-.66 1.555-1.475 1.555-.814 0-1.475-.696-1.475-1.555s.661-1.556 1.475-1.556c.814 0 1.475.697 1.475 1.556zM4.23 6.072s.33-.466.734.004c.406.471 2.508 3.501 2.634 3.615.126.114.41.235.725-.016.315-.252.712-.94 1.193-.936.482.005 2.09 2.87 2.148 2.978.058.11.045.31-.352.29-.395-.019-9.345 0-9.345 0-.193-.077-.424-.374-.33-.55zM1.4.387C.61.387-.037 1.068-.037 1.9v10.12c0 .831.645 1.513 1.435 1.513H11.74c.79 0 1.435-.682 1.435-1.514V1.9c0-.832-.645-1.513-1.435-1.513z"/></g></g></svg>