<svg xmlns="http://www.w3.org/2000/svg" width="13" height="14" viewBox="0 0 13 14"><g><g><path fill="#5987ff" d="M2.236-.006c.541-.102 5.248-.039 6.2-.039 2.186 0 4.046-.348 4.044 2.187 0 2.087.037 4.21-.002 6.292-.037 1.982-1.074 3.297-2.205 4.037-1.522.993-3.515.745-5.533.745-2.176 0-4.047.316-4.045-2.187l.001-6.292C.696 2.69.204.375 2.236-.006zm9.508 2.226C11.752.238 10.52.681 7.807.681 6.68.681 3.177.535 2.34.716c-.953.206-.907.903-.906 1.898v8.337c-.009 1.982 1.222 1.54 3.936 1.54.542 0 2.267.063 2.66-.06 1.481-.459-.107-2.554 2.686-2.899.945-.117 1.031-.733 1.03-1.727a693.163 693.163 0 0 1 0-5.585zM7.497 8.945c.303 0 .551.248.551.551a.553.553 0 0 1-.55.551H4.181a.553.553 0 0 1-.552-.55c0-.304.248-.552.552-.552zm1.475-2.907a.552.552 0 0 1 0 1.102h-4.79a.552.552 0 0 1 0-1.102zm.016-2.905c.303 0 .551.248.551.55a.553.553 0 0 1-.55.552H4.181a.553.553 0 0 1-.552-.552c0-.302.248-.55.552-.55zm.424 8.964c.814-.392 1.615-1.075 1.934-1.958-.618.168-1.127.102-1.503.49-.355.364-.316.94-.43 1.468z"/></g></g></svg>