<svg xmlns="http://www.w3.org/2000/svg" width="12" height="15" viewBox="0 0 12 15"><g><g><path fill="#fff" d="M9.309 7.35c-.055-.698.017-1.326-.606-1.574-.678-.271-1.288.238-1.392.649-.026-.76 0-1.423-.65-1.658-.633-.23-1.227.213-1.324.662-.124-1.356.195-3.791-.242-4.32-.232-.28-.643-.443-1.104-.3-.887.275-.663 1.364-.663 2.386L3.33 7.74c.034 2.573-1.29-.72-1.741-.962-.37-.2-1.744-.352-.987 1.282l1.94 4.184c.162.373.805 1.874.967 2.106.339.484 2.142.277 2.759.277.989 0 3.708.168 4.282-.234.32-.226.562-.478.652-.945l-.007-6.081a.95.95 0 0 0-.877-.661c-.672-.013-.738.313-1.01.644z"/></g></g></svg>