<svg xmlns="http://www.w3.org/2000/svg" width="15" height="14" viewBox="0 0 15 14"><g><g><path fill="#fff" d="M5.73 10.455c-.005.336.001.44.195.638l2.097 2.093c.121.126.29.315.42.418.263.211.95.173.964-.534.031-1.626-.014-3.384 0-5.028.005-.566.01-1.146.002-1.71-.005-.426.05-.364.263-.579l3.788-3.787c.505-.505 1.17-.932.702-1.52-.16-.2-.305-.212-.625-.21-2.242.012-4.496.017-6.738.002h-5.06C1.464.233 1.22.21 1.043.374c-.131.121-.271.361-.207.63.064.262.797.88 1.014 1.128L5 5.283c.07.08.134.144.219.216.106.09.12.125.198.205.158.167.32.182.316.526-.023 1.407.017 2.83-.002 4.225z"/></g></g></svg>