<svg xmlns="http://www.w3.org/2000/svg" width="13" height="14" viewBox="0 0 13 14"><g><g><path fill="#fff" d="M1.513 6.357a.87.87 0 0 1 .867.868v5.213a.87.87 0 0 1-.867.867.869.869 0 0 1-.867-.867V7.225c0-.478.389-.868.867-.868z"/></g><g><path fill="#fff" d="M4.053 4.477c.478 0 .867.39.867.867v7.094a.869.869 0 0 1-.867.867.87.87 0 0 1-.867-.867V5.344a.87.87 0 0 1 .867-.867z"/></g><g><path fill="#fff" d="M6.594.053a.87.87 0 0 1 .867.868v11.516a.87.87 0 0 1-.867.867.87.87 0 0 1-.868-.867V.921a.87.87 0 0 1 .868-.868z"/></g><g><path fill="#fff" d="M9.134 4.477c.478 0 .867.39.867.867v7.094a.869.869 0 0 1-.867.867.869.869 0 0 1-.867-.867V5.344c0-.477.389-.867.867-.867z"/></g><g><path fill="#fff" d="M11.628 2.31a.87.87 0 0 1 .867.867v9.26a.87.87 0 0 1-.867.869.87.87 0 0 1-.868-.868V3.177a.87.87 0 0 1 .868-.867z"/></g></g></svg>