<svg xmlns="http://www.w3.org/2000/svg" width="18" height="18" viewBox="0 0 18 18"><g><g><path fill="none" stroke="#ebebeb" stroke-miterlimit="20" stroke-width=".57" d="M8.768.984v0h.354c4.414 0 8.026 3.612 8.026 8.026v0c0 4.415-3.612 8.026-8.026 8.026h-.354c-4.415 0-8.026-3.611-8.026-8.026v0C.742 4.596 4.353.984 8.768.984z"/></g><g><path fill="#61b43d" d="M10.216 13.306v-3.87c0-.132.115-.239.256-.239h1.346a.256.256 0 0 0 .225-.124.221.221 0 0 0-.008-.243L9.162 4.586a.258.258 0 0 0-.217-.112.258.258 0 0 0-.217.112L5.856 8.83a.218.218 0 0 0-.008.243.255.255 0 0 0 .224.124h1.346c.142 0 .256.107.256.238v3.871c0 .131.116.24.257.24h2.028c.142 0 .257-.109.257-.24z"/></g></g></svg>