<svg xmlns="http://www.w3.org/2000/svg" width="16" height="15" viewBox="0 0 16 15"><g><g><path fill="#97aec8" d="M11.49 1.452c1.793 0 3.25 1.34 3.25 2.99 0 2.99-3.25 5.982-6.5 8.972-3.25-2.99-6.5-5.982-6.5-8.972 0-1.65 1.457-2.99 3.25-2.99 1.625 0 2.438.747 3.25 2.242.812-1.495 1.625-2.242 3.25-2.242zm-3.25.252C7.444.817 6.446.325 4.99.325 2.68.325.614 2.07.614 4.442c0 3.772 4.3 7.444 6.863 9.802l.763.702.763-.703c2.563-2.357 6.864-6.029 6.864-9.8 0-2.373-2.068-4.118-4.377-4.118-1.456 0-2.453.492-3.25 1.38z"/></g></g></svg>